# MagicaVoxel @ Ephtracy

# group
o 

# material
mtllib LevelRoom.mtl
usemtl palette

# normals
vn -1 0 0
vn 1 0 0
vn 0 0 1
vn 0 0 -1
vn 0 -1 0
vn 0 1 0

# texcoords
vt 0.00195313 0.5
vt 0.00585938 0.5
vt 0.0175781 0.5
vt 0.0214844 0.5

# verts
v -6.4 0 6.4
v -6.4 0 -6.4
v -6.4 0.1 6.4
v -6.4 0.1 6.3
v -6.4 0.3 6.3
v -6.4 0.3 -6.3
v -6.4 6.1 6.3
v -6.4 6.1 -6.3
v -6.4 6.4 6.3
v -6.4 6.4 -6.4
v -6 6.3 6.4
v -6 6.3 6.3
v -6 6.4 6.4
v -6 6.4 6.3
v 6.1 0.1 6.3
v 6.1 0.1 -6.1
v 6.1 0.2 6.3
v 6.1 0.2 -6.1
v 6.1 6.2 6.3
v 6.1 6.2 -6.1
v 6.1 6.3 6.3
v 6.1 6.3 -6.1
v 6.2 0.2 6.3
v 6.2 0.2 -6.2
v 6.2 0.3 6.3
v 6.2 0.3 -6.2
v 6.2 6.1 6.3
v 6.2 6.1 -6.2
v 6.2 6.2 6.3
v 6.2 6.2 -6.2
v 6.3 0.3 6.3
v 6.3 0.3 -6.3
v 6.3 6.1 6.3
v 6.3 6.1 -6.3
v -6.3 0.3 6.3
v -6.3 0.3 -6.3
v -6.3 6.1 6.3
v -6.3 6.1 -6.3
v -6.2 0.2 6.3
v -6.2 0.2 -6.2
v -6.2 0.3 6.3
v -6.2 0.3 -6.2
v -6.2 6.1 6.3
v -6.2 6.1 -6.2
v -6.2 6.2 6.3
v -6.2 6.2 -6.2
v -6.1 0.1 6.3
v -6.1 0.1 -6.1
v -6.1 0.2 6.3
v -6.1 0.2 -6.1
v -6.1 6.2 6.3
v -6.1 6.2 -6.1
v -6.1 6.3 6.3
v -6.1 6.3 -6.1
v 6 6.3 6.4
v 6 6.3 6.3
v 6 6.4 6.4
v 6 6.4 6.3
v 6.4 0 6.4
v 6.4 0 -6.4
v 6.4 0.1 6.4
v 6.4 0.1 6.3
v 6.4 0.3 6.3
v 6.4 0.3 -6.3
v 6.4 6.1 6.3
v 6.4 6.1 -6.3
v 6.4 6.4 6.3
v 6.4 6.4 -6.4
v -6.4 0 6.4
v -6.4 0.1 6.4
v -6.2 0 6.4
v -6.2 0.1 6.4
v -6 6.3 6.4
v -6 6.4 6.4
v 6 6.3 6.4
v 6 6.4 6.4
v 6.2 0 6.4
v 6.2 0.1 6.4
v 6.4 0 6.4
v 6.4 0.1 6.4
v -6.4 0.1 6.3
v -6.4 0.3 6.3
v -6.4 6.1 6.3
v -6.4 6.4 6.3
v -6.3 0.3 6.3
v -6.3 6.1 6.3
v -6.2 0.1 6.3
v -6.2 0.2 6.3
v -6.2 0.3 6.3
v -6.2 6.1 6.3
v -6.2 6.2 6.3
v -6.1 0.1 6.3
v -6.1 0.2 6.3
v -6.1 6.2 6.3
v -6.1 6.3 6.3
v -6 6.3 6.3
v -6 6.4 6.3
v 6 6.3 6.3
v 6 6.4 6.3
v 6.1 0.1 6.3
v 6.1 0.2 6.3
v 6.1 6.2 6.3
v 6.1 6.3 6.3
v 6.2 0.1 6.3
v 6.2 0.2 6.3
v 6.2 0.3 6.3
v 6.2 6.1 6.3
v 6.2 6.2 6.3
v 6.3 0.3 6.3
v 6.3 6.1 6.3
v 6.4 0.1 6.3
v 6.4 0.3 6.3
v 6.4 6.1 6.3
v 6.4 6.4 6.3
v -6.1 0.1 -6.1
v -6.1 0.2 -6.1
v -6.1 6.2 -6.1
v -6.1 6.3 -6.1
v 6.1 0.1 -6.1
v 6.1 0.2 -6.1
v 6.1 6.2 -6.1
v 6.1 6.3 -6.1
v -6.2 0.2 -6.2
v -6.2 0.3 -6.2
v -6.2 6.1 -6.2
v -6.2 6.2 -6.2
v 6.2 0.2 -6.2
v 6.2 0.3 -6.2
v 6.2 6.1 -6.2
v 6.2 6.2 -6.2
v -6.3 0.3 -6.3
v -6.3 6.1 -6.3
v 6.3 0.3 -6.3
v 6.3 6.1 -6.3
v -6.4 0 -6.4
v -6.4 6.4 -6.4
v -6.3 0.3 -6.4
v -6.3 6.1 -6.4
v 6.3 0.3 -6.4
v 6.3 6.1 -6.4
v 6.4 0 -6.4
v 6.4 6.4 -6.4
v -6.4 0 6.4
v -6.2 0 6.4
v 6.2 0 6.4
v 6.4 0 6.4
v -6.2 0 -6.3
v 6.2 0 -6.3
v -6.4 0 -6.4
v 6.4 0 -6.4
v -6.3 6.1 6.3
v -6.2 6.1 6.3
v 6.2 6.1 6.3
v 6.3 6.1 6.3
v -6.2 6.1 -6.2
v 6.2 6.1 -6.2
v -6.3 6.1 -6.3
v 6.3 6.1 -6.3
v -6.2 6.2 6.3
v -6.1 6.2 6.3
v 6.1 6.2 6.3
v 6.2 6.2 6.3
v -6.1 6.2 -6.1
v 6.1 6.2 -6.1
v -6.2 6.2 -6.2
v 6.2 6.2 -6.2
v -6 6.3 6.4
v 6 6.3 6.4
v -6.1 6.3 6.3
v -6 6.3 6.3
v 6 6.3 6.3
v 6.1 6.3 6.3
v -6 6.3 -6
v 6 6.3 -6
v -6.1 6.3 -6.1
v 6.1 6.3 -6.1
v -6.4 0.1 6.4
v -6.2 0.1 6.4
v 6.2 0.1 6.4
v 6.4 0.1 6.4
v -6.4 0.1 6.3
v -6.2 0.1 6.3
v -6.1 0.1 6.3
v 6.1 0.1 6.3
v 6.2 0.1 6.3
v 6.4 0.1 6.3
v -6.1 0.1 -6.1
v 6.1 0.1 -6.1
v -6.2 0.2 6.3
v -6.1 0.2 6.3
v 6.1 0.2 6.3
v 6.2 0.2 6.3
v -6.1 0.2 -6.1
v 6.1 0.2 -6.1
v -6.2 0.2 -6.2
v 6.2 0.2 -6.2
v -6.3 0.3 6.3
v -6.2 0.3 6.3
v 6.2 0.3 6.3
v 6.3 0.3 6.3
v -6.2 0.3 -6.2
v 6.2 0.3 -6.2
v -6.3 0.3 -6.3
v 6.3 0.3 -6.3
v -6 6.4 6.4
v 6 6.4 6.4
v -6.4 6.4 6.3
v -6 6.4 6.3
v 6 6.4 6.3
v 6.4 6.4 6.3
v -6 6.4 -6
v 6 6.4 -6
v -6.4 6.4 -6.4
v 6.4 6.4 -6.4

# faces
f 3/3/1 2/3/1 1/3/1
f 4/3/1 2/3/1 3/3/1
f 5/3/1 2/3/1 4/3/1
f 6/3/1 2/3/1 5/3/1
f 7/4/1 6/4/1 5/4/1
f 8/3/1 2/3/1 6/3/1
f 8/4/1 6/4/1 7/4/1
f 9/3/1 8/3/1 7/3/1
f 10/3/1 2/3/1 8/3/1
f 10/3/1 8/3/1 9/3/1
f 13/2/1 12/2/1 11/2/1
f 14/2/1 12/2/1 13/2/1
f 17/3/1 16/3/1 15/3/1
f 18/3/1 16/3/1 17/3/1
f 21/3/1 20/3/1 19/3/1
f 22/3/1 20/3/1 21/3/1
f 25/3/1 24/3/1 23/3/1
f 26/3/1 24/3/1 25/3/1
f 29/3/1 28/3/1 27/3/1
f 30/3/1 28/3/1 29/3/1
f 33/4/1 32/4/1 31/4/1
f 34/4/1 32/4/1 33/4/1
f 35/4/2 36/4/2 37/4/2
f 37/4/2 36/4/2 38/4/2
f 39/3/2 40/3/2 41/3/2
f 41/3/2 40/3/2 42/3/2
f 43/3/2 44/3/2 45/3/2
f 45/3/2 44/3/2 46/3/2
f 47/3/2 48/3/2 49/3/2
f 49/3/2 48/3/2 50/3/2
f 51/3/2 52/3/2 53/3/2
f 53/3/2 52/3/2 54/3/2
f 55/2/2 56/2/2 57/2/2
f 57/2/2 56/2/2 58/2/2
f 59/3/2 60/3/2 61/3/2
f 61/3/2 60/3/2 62/3/2
f 62/3/2 60/3/2 63/3/2
f 63/3/2 60/3/2 64/3/2
f 63/4/2 64/4/2 65/4/2
f 64/3/2 60/3/2 66/3/2
f 65/4/2 64/4/2 66/4/2
f 65/3/2 66/3/2 67/3/2
f 66/3/2 60/3/2 68/3/2
f 67/3/2 66/3/2 68/3/2
f 71/3/3 70/3/3 69/3/3
f 72/3/3 70/3/3 71/3/3
f 75/2/3 74/2/3 73/2/3
f 76/2/3 74/2/3 75/2/3
f 77/1/3 72/1/3 71/1/3
f 78/1/3 72/1/3 77/1/3
f 79/3/3 78/3/3 77/3/3
f 80/3/3 78/3/3 79/3/3
f 85/3/3 82/3/3 81/3/3
f 85/4/3 83/4/3 82/4/3
f 86/3/3 84/3/3 83/3/3
f 86/4/3 83/4/3 85/4/3
f 87/3/3 85/3/3 81/3/3
f 88/3/3 85/3/3 87/3/3
f 89/3/3 85/3/3 88/3/3
f 90/3/3 84/3/3 86/3/3
f 91/3/3 84/3/3 90/3/3
f 92/3/3 88/3/3 87/3/3
f 93/3/3 88/3/3 92/3/3
f 94/3/3 84/3/3 91/3/3
f 95/3/3 84/3/3 94/3/3
f 96/3/3 84/3/3 95/3/3
f 97/3/3 84/3/3 96/3/3
f 103/3/3 99/3/3 98/3/3
f 104/3/3 101/3/3 100/3/3
f 105/3/3 101/3/3 104/3/3
f 108/3/3 103/3/3 102/3/3
f 109/3/3 106/3/3 105/3/3
f 109/3/3 105/3/3 104/3/3
f 110/3/3 108/3/3 107/3/3
f 111/3/3 109/3/3 104/3/3
f 112/4/3 110/4/3 109/4/3
f 112/3/3 109/3/3 111/3/3
f 113/3/3 108/3/3 110/3/3
f 113/4/3 110/4/3 112/4/3
f 114/3/3 99/3/3 103/3/3
f 114/3/3 108/3/3 113/3/3
f 114/3/3 103/3/3 108/3/3
f 119/3/3 116/3/3 115/3/3
f 120/3/3 116/3/3 119/3/3
f 121/3/3 118/3/3 117/3/3
f 122/3/3 118/3/3 121/3/3
f 127/3/3 124/3/3 123/3/3
f 128/3/3 124/3/3 127/3/3
f 129/3/3 126/3/3 125/3/3
f 130/3/3 126/3/3 129/3/3
f 133/4/3 132/4/3 131/4/3
f 134/4/3 132/4/3 133/4/3
f 135/3/4 136/3/4 137/3/4
f 137/3/4 136/3/4 138/3/4
f 135/3/4 137/3/4 139/3/4
f 137/4/4 138/4/4 139/4/4
f 138/3/4 136/3/4 140/3/4
f 139/4/4 138/4/4 140/4/4
f 135/3/4 139/3/4 141/3/4
f 139/3/4 140/3/4 141/3/4
f 140/3/4 136/3/4 142/3/4
f 141/3/4 140/3/4 142/3/4
f 147/3/5 144/3/5 143/3/5
f 147/1/5 145/1/5 144/1/5
f 148/3/5 146/3/5 145/3/5
f 148/1/5 145/1/5 147/1/5
f 149/3/5 147/3/5 143/3/5
f 149/3/5 148/3/5 147/3/5
f 150/3/5 146/3/5 148/3/5
f 150/3/5 148/3/5 149/3/5
f 155/3/5 152/3/5 151/3/5
f 156/3/5 154/3/5 153/3/5
f 157/3/5 155/3/5 151/3/5
f 157/3/5 156/3/5 155/3/5
f 158/3/5 154/3/5 156/3/5
f 158/3/5 156/3/5 157/3/5
f 163/3/5 160/3/5 159/3/5
f 164/3/5 162/3/5 161/3/5
f 165/3/5 163/3/5 159/3/5
f 165/3/5 164/3/5 163/3/5
f 166/3/5 162/3/5 164/3/5
f 166/3/5 164/3/5 165/3/5
f 170/2/5 168/2/5 167/2/5
f 171/2/5 168/2/5 170/2/5
f 173/3/5 170/3/5 169/3/5
f 173/2/5 171/2/5 170/2/5
f 174/3/5 172/3/5 171/3/5
f 174/2/5 171/2/5 173/2/5
f 175/3/5 173/3/5 169/3/5
f 175/3/5 174/3/5 173/3/5
f 176/3/5 172/3/5 174/3/5
f 176/3/5 174/3/5 175/3/5
f 177/3/6 178/3/6 181/3/6
f 178/1/6 179/1/6 182/1/6
f 181/3/6 178/3/6 182/3/6
f 182/1/6 179/1/6 183/1/6
f 183/1/6 179/1/6 184/1/6
f 179/3/6 180/3/6 185/3/6
f 184/1/6 179/1/6 185/1/6
f 185/3/6 180/3/6 186/3/6
f 183/1/6 184/1/6 187/1/6
f 187/1/6 184/1/6 188/1/6
f 189/3/6 190/3/6 193/3/6
f 191/3/6 192/3/6 194/3/6
f 189/3/6 193/3/6 195/3/6
f 193/3/6 194/3/6 195/3/6
f 194/3/6 192/3/6 196/3/6
f 195/3/6 194/3/6 196/3/6
f 197/3/6 198/3/6 201/3/6
f 199/3/6 200/3/6 202/3/6
f 197/3/6 201/3/6 203/3/6
f 201/3/6 202/3/6 203/3/6
f 202/3/6 200/3/6 204/3/6
f 203/3/6 202/3/6 204/3/6
f 205/2/6 206/2/6 208/2/6
f 208/2/6 206/2/6 209/2/6
f 207/3/6 208/3/6 211/3/6
f 208/2/6 209/2/6 211/2/6
f 209/3/6 210/3/6 212/3/6
f 211/2/6 209/2/6 212/2/6
f 207/3/6 211/3/6 213/3/6
f 211/3/6 212/3/6 213/3/6
f 212/3/6 210/3/6 214/3/6
f 213/3/6 212/3/6 214/3/6
