# MagicaVoxel @ Ephtracy

# group
o 

# material
mtllib MokeyRobotBrokenEarCover.mtl
usemtl palette

# normals
vn -1 0 0
vn 1 0 0
vn 0 0 1
vn 0 0 -1
vn 0 -1 0
vn 0 1 0

# texcoords
vt 0.0175781 0.5
vt 0.0214844 0.5

# verts
v -2.3 1.8 0.4
v -2.3 1.8 -0.4
v -2.3 1.9 0.5
v -2.3 1.9 0.4
v -2.3 1.9 -0.4
v -2.3 1.9 -0.5
v -2.3 2.1 0.4
v -2.3 2.1 0.3
v -2.3 2.1 -0.3
v -2.3 2.1 -0.4
v -2.3 2.2 0.6
v -2.3 2.2 0.5
v -2.3 2.2 0.4
v -2.3 2.2 0.3
v -2.3 2.2 0.2
v -2.3 2.2 -0.2
v -2.3 2.2 -0.3
v -2.3 2.2 -0.4
v -2.3 2.2 -0.5
v -2.3 2.2 -0.6
v -2.3 2.3 0.3
v -2.3 2.3 0.2
v -2.3 2.3 0.1
v -2.3 2.3 -0.1
v -2.3 2.3 -0.2
v -2.3 2.3 -0.3
v -2.3 2.4 0.2
v -2.3 2.4 0.1
v -2.3 2.4 -0.1
v -2.3 2.4 -0.2
v -2.3 2.5 0.2
v -2.3 2.5 0.1
v -2.3 2.5 -0.1
v -2.3 2.5 -0.2
v -2.3 2.6 0.3
v -2.3 2.6 0.2
v -2.3 2.6 0.1
v -2.3 2.6 -0.1
v -2.3 2.6 -0.2
v -2.3 2.6 -0.3
v -2.3 2.7 0.4
v -2.3 2.7 0.3
v -2.3 2.7 0.2
v -2.3 2.7 -0.2
v -2.3 2.7 -0.3
v -2.3 2.7 -0.4
v -2.3 2.8 0.6
v -2.3 2.8 0.5
v -2.3 2.8 0.4
v -2.3 2.8 0.3
v -2.3 2.8 -0.3
v -2.3 2.8 -0.4
v -2.3 2.8 -0.5
v -2.3 2.8 -0.6
v -2.3 3 0.5
v -2.3 3 0.4
v -2.3 3 -0.4
v -2.3 3 -0.5
v -2.3 3.1 0.4
v -2.3 3.1 -0.4
v -2.2 1.8 0.4
v -2.2 1.8 -0.4
v -2.2 1.9 0.5
v -2.2 1.9 0.4
v -2.2 1.9 -0.4
v -2.2 1.9 -0.5
v -2.2 2.1 0.4
v -2.2 2.1 0.3
v -2.2 2.1 -0.3
v -2.2 2.1 -0.4
v -2.2 2.2 0.6
v -2.2 2.2 0.5
v -2.2 2.2 0.4
v -2.2 2.2 0.3
v -2.2 2.2 0.2
v -2.2 2.2 -0.2
v -2.2 2.2 -0.3
v -2.2 2.2 -0.4
v -2.2 2.2 -0.5
v -2.2 2.2 -0.6
v -2.2 2.3 0.3
v -2.2 2.3 0.2
v -2.2 2.3 0.1
v -2.2 2.3 -0.1
v -2.2 2.3 -0.2
v -2.2 2.3 -0.3
v -2.2 2.4 0.2
v -2.2 2.4 0.1
v -2.2 2.4 -0.1
v -2.2 2.4 -0.2
v -2.2 2.5 0.2
v -2.2 2.5 0.1
v -2.2 2.5 -0.1
v -2.2 2.5 -0.2
v -2.2 2.6 0.3
v -2.2 2.6 0.2
v -2.2 2.6 0.1
v -2.2 2.6 -0.1
v -2.2 2.6 -0.2
v -2.2 2.6 -0.3
v -2.2 2.7 0.4
v -2.2 2.7 0.3
v -2.2 2.7 0.2
v -2.2 2.7 -0.2
v -2.2 2.7 -0.3
v -2.2 2.7 -0.4
v -2.2 2.8 0.6
v -2.2 2.8 0.5
v -2.2 2.8 0.4
v -2.2 2.8 0.3
v -2.2 2.8 -0.3
v -2.2 2.8 -0.4
v -2.2 2.8 -0.5
v -2.2 2.8 -0.6
v -2.2 3 0.5
v -2.2 3 0.4
v -2.2 3 -0.4
v -2.2 3 -0.5
v -2.2 3.1 0.4
v -2.2 3.1 -0.4
v -2.3 2.2 0.6
v -2.3 2.8 0.6
v -2.2 2.2 0.6
v -2.2 2.8 0.6
v -2.3 1.9 0.5
v -2.3 2.2 0.5
v -2.3 2.8 0.5
v -2.3 3 0.5
v -2.2 1.9 0.5
v -2.2 2.2 0.5
v -2.2 2.8 0.5
v -2.2 3 0.5
v -2.3 1.8 0.4
v -2.3 1.9 0.4
v -2.3 3 0.4
v -2.3 3.1 0.4
v -2.2 1.8 0.4
v -2.2 1.9 0.4
v -2.2 3 0.4
v -2.2 3.1 0.4
v -2.3 1.8 -0.4
v -2.3 1.9 -0.4
v -2.3 3 -0.4
v -2.3 3.1 -0.4
v -2.2 1.8 -0.4
v -2.2 1.9 -0.4
v -2.2 3 -0.4
v -2.2 3.1 -0.4
v -2.3 1.9 -0.5
v -2.3 2.2 -0.5
v -2.3 2.8 -0.5
v -2.3 3 -0.5
v -2.2 1.9 -0.5
v -2.2 2.2 -0.5
v -2.2 2.8 -0.5
v -2.2 3 -0.5
v -2.3 2.2 -0.6
v -2.3 2.8 -0.6
v -2.2 2.2 -0.6
v -2.2 2.8 -0.6
v -2.3 1.8 0.4
v -2.2 1.8 0.4
v -2.3 1.8 -0.4
v -2.2 1.8 -0.4
v -2.3 1.9 0.5
v -2.2 1.9 0.5
v -2.3 1.9 0.4
v -2.2 1.9 0.4
v -2.3 1.9 -0.4
v -2.2 1.9 -0.4
v -2.3 1.9 -0.5
v -2.2 1.9 -0.5
v -2.3 2.2 0.6
v -2.2 2.2 0.6
v -2.3 2.2 0.5
v -2.2 2.2 0.5
v -2.3 2.2 -0.5
v -2.2 2.2 -0.5
v -2.3 2.2 -0.6
v -2.2 2.2 -0.6
v -2.3 2.8 0.6
v -2.2 2.8 0.6
v -2.3 2.8 0.5
v -2.2 2.8 0.5
v -2.3 2.8 -0.5
v -2.2 2.8 -0.5
v -2.3 2.8 -0.6
v -2.2 2.8 -0.6
v -2.3 3 0.5
v -2.2 3 0.5
v -2.3 3 0.4
v -2.2 3 0.4
v -2.3 3 -0.4
v -2.2 3 -0.4
v -2.3 3 -0.5
v -2.2 3 -0.5
v -2.3 3.1 0.4
v -2.2 3.1 0.4
v -2.3 3.1 -0.4
v -2.2 3.1 -0.4

# faces
f 4/2/1 2/2/1 1/2/1
f 5/2/1 2/2/1 4/2/1
f 7/2/1 4/2/1 3/2/1
f 7/2/1 6/2/1 5/2/1
f 7/2/1 5/2/1 4/2/1
f 8/2/1 6/2/1 7/2/1
f 9/2/1 6/2/1 8/2/1
f 10/2/1 6/2/1 9/2/1
f 12/2/1 7/2/1 3/2/1
f 13/1/1 8/1/1 7/1/1
f 13/2/1 7/2/1 12/2/1
f 14/2/1 9/2/1 8/2/1
f 14/1/1 8/1/1 13/1/1
f 15/2/1 9/2/1 14/2/1
f 16/2/1 9/2/1 15/2/1
f 17/1/1 10/1/1 9/1/1
f 17/2/1 9/2/1 16/2/1
f 18/2/1 6/2/1 10/2/1
f 18/1/1 10/1/1 17/1/1
f 19/2/1 6/2/1 18/2/1
f 21/2/1 12/2/1 11/2/1
f 21/2/1 13/2/1 12/2/1
f 21/2/1 14/2/1 13/2/1
f 21/1/1 15/1/1 14/1/1
f 22/2/1 16/2/1 15/2/1
f 22/1/1 15/1/1 21/1/1
f 23/2/1 16/2/1 22/2/1
f 24/2/1 16/2/1 23/2/1
f 25/1/1 17/1/1 16/1/1
f 25/2/1 16/2/1 24/2/1
f 26/2/1 20/2/1 19/2/1
f 26/1/1 17/1/1 25/1/1
f 26/2/1 19/2/1 18/2/1
f 26/2/1 18/2/1 17/2/1
f 27/1/1 23/1/1 22/1/1
f 27/2/1 22/2/1 21/2/1
f 28/2/1 24/2/1 23/2/1
f 28/1/1 23/1/1 27/1/1
f 29/1/1 25/1/1 24/1/1
f 29/2/1 24/2/1 28/2/1
f 30/2/1 26/2/1 25/2/1
f 30/1/1 25/1/1 29/1/1
f 31/2/1 27/2/1 21/2/1
f 31/2/1 28/2/1 27/2/1
f 32/1/1 29/1/1 28/1/1
f 32/2/1 28/2/1 31/2/1
f 33/2/1 30/2/1 29/2/1
f 33/1/1 29/1/1 32/1/1
f 34/2/1 26/2/1 30/2/1
f 34/2/1 30/2/1 33/2/1
f 35/2/1 21/2/1 11/2/1
f 35/2/1 31/2/1 21/2/1
f 36/1/1 32/1/1 31/1/1
f 36/2/1 31/2/1 35/2/1
f 37/2/1 33/2/1 32/2/1
f 37/1/1 32/1/1 36/1/1
f 38/1/1 34/1/1 33/1/1
f 38/2/1 33/2/1 37/2/1
f 39/2/1 26/2/1 34/2/1
f 39/1/1 34/1/1 38/1/1
f 40/2/1 20/2/1 26/2/1
f 40/2/1 26/2/1 39/2/1
f 41/2/1 35/2/1 11/2/1
f 42/1/1 36/1/1 35/1/1
f 42/2/1 35/2/1 41/2/1
f 43/2/1 39/2/1 38/2/1
f 43/1/1 36/1/1 42/1/1
f 43/2/1 38/2/1 37/2/1
f 43/2/1 37/2/1 36/2/1
f 44/1/1 40/1/1 39/1/1
f 44/2/1 39/2/1 43/2/1
f 45/2/1 20/2/1 40/2/1
f 45/1/1 40/1/1 44/1/1
f 46/2/1 20/2/1 45/2/1
f 47/2/1 41/2/1 11/2/1
f 48/2/1 41/2/1 47/2/1
f 49/1/1 42/1/1 41/1/1
f 49/2/1 41/2/1 48/2/1
f 50/2/1 44/2/1 43/2/1
f 50/1/1 42/1/1 49/1/1
f 50/2/1 43/2/1 42/2/1
f 50/2/1 45/2/1 44/2/1
f 51/1/1 46/1/1 45/1/1
f 51/2/1 45/2/1 50/2/1
f 52/2/1 20/2/1 46/2/1
f 52/1/1 46/1/1 51/1/1
f 53/2/1 20/2/1 52/2/1
f 54/2/1 20/2/1 53/2/1
f 55/2/1 51/2/1 50/2/1
f 55/2/1 49/2/1 48/2/1
f 55/2/1 53/2/1 52/2/1
f 55/2/1 52/2/1 51/2/1
f 55/2/1 50/2/1 49/2/1
f 56/2/1 53/2/1 55/2/1
f 57/2/1 53/2/1 56/2/1
f 58/2/1 53/2/1 57/2/1
f 59/2/1 57/2/1 56/2/1
f 60/2/1 57/2/1 59/2/1
f 61/2/2 62/2/2 64/2/2
f 64/2/2 62/2/2 65/2/2
f 63/2/2 64/2/2 67/2/2
f 65/2/2 66/2/2 67/2/2
f 64/2/2 65/2/2 67/2/2
f 67/2/2 66/2/2 68/2/2
f 68/2/2 66/2/2 69/2/2
f 69/2/2 66/2/2 70/2/2
f 63/2/2 67/2/2 72/2/2
f 67/1/2 68/1/2 73/1/2
f 72/2/2 67/2/2 73/2/2
f 68/2/2 69/2/2 74/2/2
f 73/1/2 68/1/2 74/1/2
f 74/2/2 69/2/2 75/2/2
f 75/2/2 69/2/2 76/2/2
f 69/1/2 70/1/2 77/1/2
f 76/2/2 69/2/2 77/2/2
f 70/2/2 66/2/2 78/2/2
f 77/1/2 70/1/2 78/1/2
f 78/2/2 66/2/2 79/2/2
f 71/2/2 72/2/2 81/2/2
f 72/2/2 73/2/2 81/2/2
f 73/2/2 74/2/2 81/2/2
f 74/1/2 75/1/2 81/1/2
f 75/2/2 76/2/2 82/2/2
f 81/1/2 75/1/2 82/1/2
f 82/2/2 76/2/2 83/2/2
f 83/2/2 76/2/2 84/2/2
f 76/1/2 77/1/2 85/1/2
f 84/2/2 76/2/2 85/2/2
f 79/2/2 80/2/2 86/2/2
f 85/1/2 77/1/2 86/1/2
f 78/2/2 79/2/2 86/2/2
f 77/2/2 78/2/2 86/2/2
f 82/1/2 83/1/2 87/1/2
f 81/2/2 82/2/2 87/2/2
f 83/2/2 84/2/2 88/2/2
f 87/1/2 83/1/2 88/1/2
f 84/1/2 85/1/2 89/1/2
f 88/2/2 84/2/2 89/2/2
f 85/2/2 86/2/2 90/2/2
f 89/1/2 85/1/2 90/1/2
f 81/2/2 87/2/2 91/2/2
f 87/2/2 88/2/2 91/2/2
f 88/1/2 89/1/2 92/1/2
f 91/2/2 88/2/2 92/2/2
f 89/2/2 90/2/2 93/2/2
f 92/1/2 89/1/2 93/1/2
f 90/2/2 86/2/2 94/2/2
f 93/2/2 90/2/2 94/2/2
f 71/2/2 81/2/2 95/2/2
f 81/2/2 91/2/2 95/2/2
f 91/1/2 92/1/2 96/1/2
f 95/2/2 91/2/2 96/2/2
f 92/2/2 93/2/2 97/2/2
f 96/1/2 92/1/2 97/1/2
f 93/1/2 94/1/2 98/1/2
f 97/2/2 93/2/2 98/2/2
f 94/2/2 86/2/2 99/2/2
f 98/1/2 94/1/2 99/1/2
f 86/2/2 80/2/2 100/2/2
f 99/2/2 86/2/2 100/2/2
f 71/2/2 95/2/2 101/2/2
f 95/1/2 96/1/2 102/1/2
f 101/2/2 95/2/2 102/2/2
f 98/2/2 99/2/2 103/2/2
f 102/1/2 96/1/2 103/1/2
f 97/2/2 98/2/2 103/2/2
f 96/2/2 97/2/2 103/2/2
f 99/1/2 100/1/2 104/1/2
f 103/2/2 99/2/2 104/2/2
f 100/2/2 80/2/2 105/2/2
f 104/1/2 100/1/2 105/1/2
f 105/2/2 80/2/2 106/2/2
f 71/2/2 101/2/2 107/2/2
f 107/2/2 101/2/2 108/2/2
f 101/1/2 102/1/2 109/1/2
f 108/2/2 101/2/2 109/2/2
f 103/2/2 104/2/2 110/2/2
f 109/1/2 102/1/2 110/1/2
f 102/2/2 103/2/2 110/2/2
f 104/2/2 105/2/2 110/2/2
f 105/1/2 106/1/2 111/1/2
f 110/2/2 105/2/2 111/2/2
f 106/2/2 80/2/2 112/2/2
f 111/1/2 106/1/2 112/1/2
f 112/2/2 80/2/2 113/2/2
f 113/2/2 80/2/2 114/2/2
f 110/2/2 111/2/2 115/2/2
f 108/2/2 109/2/2 115/2/2
f 112/2/2 113/2/2 115/2/2
f 111/2/2 112/2/2 115/2/2
f 109/2/2 110/2/2 115/2/2
f 115/2/2 113/2/2 116/2/2
f 116/2/2 113/2/2 117/2/2
f 117/2/2 113/2/2 118/2/2
f 116/2/2 117/2/2 119/2/2
f 119/2/2 117/2/2 120/2/2
f 123/2/3 122/2/3 121/2/3
f 124/2/3 122/2/3 123/2/3
f 129/2/3 126/2/3 125/2/3
f 130/2/3 126/2/3 129/2/3
f 131/2/3 128/2/3 127/2/3
f 132/2/3 128/2/3 131/2/3
f 137/2/3 134/2/3 133/2/3
f 138/2/3 134/2/3 137/2/3
f 139/2/3 136/2/3 135/2/3
f 140/2/3 136/2/3 139/2/3
f 141/2/4 142/2/4 145/2/4
f 145/2/4 142/2/4 146/2/4
f 143/2/4 144/2/4 147/2/4
f 147/2/4 144/2/4 148/2/4
f 149/2/4 150/2/4 153/2/4
f 153/2/4 150/2/4 154/2/4
f 151/2/4 152/2/4 155/2/4
f 155/2/4 152/2/4 156/2/4
f 157/2/4 158/2/4 159/2/4
f 159/2/4 158/2/4 160/2/4
f 163/2/5 162/2/5 161/2/5
f 164/2/5 162/2/5 163/2/5
f 167/2/5 166/2/5 165/2/5
f 168/2/5 166/2/5 167/2/5
f 171/2/5 170/2/5 169/2/5
f 172/2/5 170/2/5 171/2/5
f 175/2/5 174/2/5 173/2/5
f 176/2/5 174/2/5 175/2/5
f 179/2/5 178/2/5 177/2/5
f 180/2/5 178/2/5 179/2/5
f 181/2/6 182/2/6 183/2/6
f 183/2/6 182/2/6 184/2/6
f 185/2/6 186/2/6 187/2/6
f 187/2/6 186/2/6 188/2/6
f 189/2/6 190/2/6 191/2/6
f 191/2/6 190/2/6 192/2/6
f 193/2/6 194/2/6 195/2/6
f 195/2/6 194/2/6 196/2/6
f 197/2/6 198/2/6 199/2/6
f 199/2/6 198/2/6 200/2/6
