# MagicaVoxel @ Ephtracy

# group
o 

# material
mtllib MonkeyRobotFixedFacePlate.mtl
usemtl palette

# normals
vn -1 0 0
vn 1 0 0
vn 0 0 1
vn 0 0 -1
vn 0 -1 0
vn 0 1 0

# texcoords
vt 0.0175781 0.5
vt 0.0214844 0.5

# verts
v -1.4 2.3 1.3
v -1.4 2.3 1.2
v -1.4 3.5 1.3
v -1.4 3.5 1.2
v -1.3 2.2 1.3
v -1.3 2.2 1.2
v -1.3 2.3 1.3
v -1.3 2.3 1.2
v -1.3 3.5 1.3
v -1.3 3.5 1.2
v -1.3 3.6 1.3
v -1.3 3.6 1.2
v -1.2 3.6 1.3
v -1.2 3.6 1.2
v -1.2 3.7 1.3
v -1.2 3.7 1.2
v -1.1 3.7 1.3
v -1.1 3.7 1.2
v -1.1 3.8 1.3
v -1.1 3.8 1.2
v 0.9 3.7 1.3
v 0.9 3.7 1.2
v 0.9 3.8 1.3
v 0.9 3.8 1.2
v 1 3.6 1.3
v 1 3.6 1.2
v 1 3.7 1.3
v 1 3.7 1.2
v 1.1 2.2 1.3
v 1.1 2.2 1.2
v 1.1 2.3 1.3
v 1.1 2.3 1.2
v 1.1 3.5 1.3
v 1.1 3.5 1.2
v 1.1 3.6 1.3
v 1.1 3.6 1.2
v 1.2 2.3 1.3
v 1.2 2.3 1.2
v 1.2 3.5 1.3
v 1.2 3.5 1.2
v -1.4 2.3 1.3
v -1.4 3.5 1.3
v -1.3 2.2 1.3
v -1.3 2.3 1.3
v -1.3 3.5 1.3
v -1.3 3.6 1.3
v -1.2 2.7 1.3
v -1.2 2.9 1.3
v -1.2 3.6 1.3
v -1.2 3.7 1.3
v -1.1 3.7 1.3
v -1.1 3.8 1.3
v -1 2.7 1.3
v -1 2.9 1.3
v -0.9 3.4 1.3
v -0.9 3.5 1.3
v -0.8 2.9 1.3
v -0.8 3.4 1.3
v -0.6 2.5 1.3
v -0.6 2.6 1.3
v -0.5 2.4 1.3
v -0.5 2.5 1.3
v -0.5 2.6 1.3
v -0.4 2.9 1.3
v -0.4 3.4 1.3
v -0.3 3.4 1.3
v -0.3 3.5 1.3
v 0.1 3.4 1.3
v 0.1 3.5 1.3
v 0.2 2.9 1.3
v 0.2 3.4 1.3
v 0.3 2.4 1.3
v 0.3 2.5 1.3
v 0.3 2.6 1.3
v 0.4 2.5 1.3
v 0.4 2.6 1.3
v 0.6 2.9 1.3
v 0.6 3.4 1.3
v 0.7 3.4 1.3
v 0.7 3.5 1.3
v 0.8 2.7 1.3
v 0.8 2.9 1.3
v 0.9 3.7 1.3
v 0.9 3.8 1.3
v 1 2.7 1.3
v 1 2.9 1.3
v 1 3.6 1.3
v 1 3.7 1.3
v 1.1 2.2 1.3
v 1.1 2.3 1.3
v 1.1 3.5 1.3
v 1.1 3.6 1.3
v 1.2 2.3 1.3
v 1.2 3.5 1.3
v -1.4 2.3 1.2
v -1.4 3.5 1.2
v -1.3 2.2 1.2
v -1.3 2.3 1.2
v -1.3 3.5 1.2
v -1.3 3.6 1.2
v -1.2 2.7 1.2
v -1.2 2.9 1.2
v -1.2 3.6 1.2
v -1.2 3.7 1.2
v -1.1 3.7 1.2
v -1.1 3.8 1.2
v -1 2.7 1.2
v -1 2.9 1.2
v -0.9 3.4 1.2
v -0.9 3.5 1.2
v -0.8 2.9 1.2
v -0.8 3.4 1.2
v -0.6 2.5 1.2
v -0.6 2.6 1.2
v -0.5 2.4 1.2
v -0.5 2.5 1.2
v -0.5 2.6 1.2
v -0.4 2.9 1.2
v -0.4 3.4 1.2
v -0.3 3.4 1.2
v -0.3 3.5 1.2
v 0.1 3.4 1.2
v 0.1 3.5 1.2
v 0.2 2.9 1.2
v 0.2 3.4 1.2
v 0.3 2.4 1.2
v 0.3 2.5 1.2
v 0.3 2.6 1.2
v 0.4 2.5 1.2
v 0.4 2.6 1.2
v 0.6 2.9 1.2
v 0.6 3.4 1.2
v 0.7 3.4 1.2
v 0.7 3.5 1.2
v 0.8 2.7 1.2
v 0.8 2.9 1.2
v 0.9 3.7 1.2
v 0.9 3.8 1.2
v 1 2.7 1.2
v 1 2.9 1.2
v 1 3.6 1.2
v 1 3.7 1.2
v 1.1 2.2 1.2
v 1.1 2.3 1.2
v 1.1 3.5 1.2
v 1.1 3.6 1.2
v 1.2 2.3 1.2
v 1.2 3.5 1.2
v -1.3 2.2 1.3
v 1.1 2.2 1.3
v -1.3 2.2 1.2
v 1.1 2.2 1.2
v -1.4 2.3 1.3
v -1.3 2.3 1.3
v 1.1 2.3 1.3
v 1.2 2.3 1.3
v -1.4 2.3 1.2
v -1.3 2.3 1.2
v 1.1 2.3 1.2
v 1.2 2.3 1.2
v -1.4 3.5 1.3
v -1.3 3.5 1.3
v 1.1 3.5 1.3
v 1.2 3.5 1.3
v -1.4 3.5 1.2
v -1.3 3.5 1.2
v 1.1 3.5 1.2
v 1.2 3.5 1.2
v -1.3 3.6 1.3
v -1.2 3.6 1.3
v 1 3.6 1.3
v 1.1 3.6 1.3
v -1.3 3.6 1.2
v -1.2 3.6 1.2
v 1 3.6 1.2
v 1.1 3.6 1.2
v -1.2 3.7 1.3
v -1.1 3.7 1.3
v 0.9 3.7 1.3
v 1 3.7 1.3
v -1.2 3.7 1.2
v -1.1 3.7 1.2
v 0.9 3.7 1.2
v 1 3.7 1.2
v -1.1 3.8 1.3
v 0.9 3.8 1.3
v -1.1 3.8 1.2
v 0.9 3.8 1.2

# faces
f 3/2/1 2/2/1 1/2/1
f 4/2/1 2/2/1 3/2/1
f 7/2/1 6/2/1 5/2/1
f 8/2/1 6/2/1 7/2/1
f 11/2/1 10/2/1 9/2/1
f 12/2/1 10/2/1 11/2/1
f 15/2/1 14/2/1 13/2/1
f 16/2/1 14/2/1 15/2/1
f 19/2/1 18/2/1 17/2/1
f 20/2/1 18/2/1 19/2/1
f 21/2/2 22/2/2 23/2/2
f 23/2/2 22/2/2 24/2/2
f 25/2/2 26/2/2 27/2/2
f 27/2/2 26/2/2 28/2/2
f 29/2/2 30/2/2 31/2/2
f 31/2/2 30/2/2 32/2/2
f 33/2/2 34/2/2 35/2/2
f 35/2/2 34/2/2 36/2/2
f 37/2/2 38/2/2 39/2/2
f 39/2/2 38/2/2 40/2/2
f 44/2/3 42/2/3 41/2/3
f 45/2/3 42/2/3 44/2/3
f 47/2/3 44/2/3 43/2/3
f 47/2/3 46/2/3 45/2/3
f 47/2/3 45/2/3 44/2/3
f 48/2/3 46/2/3 47/2/3
f 49/2/3 46/2/3 48/2/3
f 51/2/3 49/2/3 48/2/3
f 51/2/3 50/2/3 49/2/3
f 53/2/3 47/2/3 43/2/3
f 53/1/3 48/1/3 47/1/3
f 54/2/3 52/2/3 51/2/3
f 54/1/3 48/1/3 53/1/3
f 54/2/3 51/2/3 48/2/3
f 55/2/3 54/2/3 53/2/3
f 55/2/3 52/2/3 54/2/3
f 56/2/3 52/2/3 55/2/3
f 57/2/3 55/2/3 53/2/3
f 58/1/3 56/1/3 55/1/3
f 58/2/3 55/2/3 57/2/3
f 59/2/3 53/2/3 43/2/3
f 59/2/3 57/2/3 53/2/3
f 60/2/3 57/2/3 59/2/3
f 61/2/3 59/2/3 43/2/3
f 62/1/3 60/1/3 59/1/3
f 62/2/3 59/2/3 61/2/3
f 63/2/3 57/2/3 60/2/3
f 63/1/3 60/1/3 62/1/3
f 64/1/3 58/1/3 57/1/3
f 64/2/3 57/2/3 63/2/3
f 64/2/3 63/2/3 62/2/3
f 65/1/3 56/1/3 58/1/3
f 65/1/3 58/1/3 64/1/3
f 66/2/3 65/2/3 64/2/3
f 66/1/3 56/1/3 65/1/3
f 67/2/3 52/2/3 56/2/3
f 67/1/3 56/1/3 66/1/3
f 68/2/3 66/2/3 64/2/3
f 68/2/3 67/2/3 66/2/3
f 69/2/3 52/2/3 67/2/3
f 69/2/3 67/2/3 68/2/3
f 70/2/3 64/2/3 62/2/3
f 70/2/3 68/2/3 64/2/3
f 71/1/3 69/1/3 68/1/3
f 71/2/3 68/2/3 70/2/3
f 72/2/3 61/2/3 43/2/3
f 72/1/3 62/1/3 61/1/3
f 73/2/3 70/2/3 62/2/3
f 73/1/3 62/1/3 72/1/3
f 74/2/3 70/2/3 73/2/3
f 75/2/3 73/2/3 72/2/3
f 75/1/3 74/1/3 73/1/3
f 76/2/3 70/2/3 74/2/3
f 76/1/3 74/1/3 75/1/3
f 77/1/3 71/1/3 70/1/3
f 77/2/3 70/2/3 76/2/3
f 77/2/3 76/2/3 75/2/3
f 78/1/3 69/1/3 71/1/3
f 78/1/3 71/1/3 77/1/3
f 79/2/3 78/2/3 77/2/3
f 79/1/3 69/1/3 78/1/3
f 80/2/3 52/2/3 69/2/3
f 80/1/3 69/1/3 79/1/3
f 81/2/3 79/2/3 77/2/3
f 81/2/3 77/2/3 75/2/3
f 81/2/3 80/2/3 79/2/3
f 82/2/3 80/2/3 81/2/3
f 83/2/3 52/2/3 80/2/3
f 83/2/3 80/2/3 82/2/3
f 84/2/3 52/2/3 83/2/3
f 85/1/3 82/1/3 81/1/3
f 85/2/3 81/2/3 75/2/3
f 86/2/3 83/2/3 82/2/3
f 86/1/3 82/1/3 85/1/3
f 87/2/3 83/2/3 86/2/3
f 88/2/3 83/2/3 87/2/3
f 89/2/3 72/2/3 43/2/3
f 89/2/3 75/2/3 72/2/3
f 89/2/3 87/2/3 86/2/3
f 89/2/3 86/2/3 85/2/3
f 89/2/3 85/2/3 75/2/3
f 90/2/3 87/2/3 89/2/3
f 91/2/3 87/2/3 90/2/3
f 92/2/3 87/2/3 91/2/3
f 93/2/3 91/2/3 90/2/3
f 94/2/3 91/2/3 93/2/3
f 95/2/4 96/2/4 98/2/4
f 98/2/4 96/2/4 99/2/4
f 97/2/4 98/2/4 101/2/4
f 99/2/4 100/2/4 101/2/4
f 98/2/4 99/2/4 101/2/4
f 101/2/4 100/2/4 102/2/4
f 102/2/4 100/2/4 103/2/4
f 102/2/4 103/2/4 105/2/4
f 103/2/4 104/2/4 105/2/4
f 97/2/4 101/2/4 107/2/4
f 101/1/4 102/1/4 107/1/4
f 105/2/4 106/2/4 108/2/4
f 107/1/4 102/1/4 108/1/4
f 102/2/4 105/2/4 108/2/4
f 107/2/4 108/2/4 109/2/4
f 108/2/4 106/2/4 109/2/4
f 109/2/4 106/2/4 110/2/4
f 107/2/4 109/2/4 111/2/4
f 109/1/4 110/1/4 112/1/4
f 111/2/4 109/2/4 112/2/4
f 97/2/4 107/2/4 113/2/4
f 107/2/4 111/2/4 113/2/4
f 113/2/4 111/2/4 114/2/4
f 97/2/4 113/2/4 115/2/4
f 113/1/4 114/1/4 116/1/4
f 115/2/4 113/2/4 116/2/4
f 114/2/4 111/2/4 117/2/4
f 116/1/4 114/1/4 117/1/4
f 111/1/4 112/1/4 118/1/4
f 117/2/4 111/2/4 118/2/4
f 116/2/4 117/2/4 118/2/4
f 112/1/4 110/1/4 119/1/4
f 118/1/4 112/1/4 119/1/4
f 118/2/4 119/2/4 120/2/4
f 119/1/4 110/1/4 120/1/4
f 110/2/4 106/2/4 121/2/4
f 120/1/4 110/1/4 121/1/4
f 118/2/4 120/2/4 122/2/4
f 120/2/4 121/2/4 122/2/4
f 121/2/4 106/2/4 123/2/4
f 122/2/4 121/2/4 123/2/4
f 116/2/4 118/2/4 124/2/4
f 118/2/4 122/2/4 124/2/4
f 122/1/4 123/1/4 125/1/4
f 124/2/4 122/2/4 125/2/4
f 97/2/4 115/2/4 126/2/4
f 115/1/4 116/1/4 126/1/4
f 116/2/4 124/2/4 127/2/4
f 126/1/4 116/1/4 127/1/4
f 127/2/4 124/2/4 128/2/4
f 126/2/4 127/2/4 129/2/4
f 127/1/4 128/1/4 129/1/4
f 128/2/4 124/2/4 130/2/4
f 129/1/4 128/1/4 130/1/4
f 124/1/4 125/1/4 131/1/4
f 130/2/4 124/2/4 131/2/4
f 129/2/4 130/2/4 131/2/4
f 125/1/4 123/1/4 132/1/4
f 131/1/4 125/1/4 132/1/4
f 131/2/4 132/2/4 133/2/4
f 132/1/4 123/1/4 133/1/4
f 123/2/4 106/2/4 134/2/4
f 133/1/4 123/1/4 134/1/4
f 131/2/4 133/2/4 135/2/4
f 129/2/4 131/2/4 135/2/4
f 133/2/4 134/2/4 135/2/4
f 135/2/4 134/2/4 136/2/4
f 134/2/4 106/2/4 137/2/4
f 136/2/4 134/2/4 137/2/4
f 137/2/4 106/2/4 138/2/4
f 135/1/4 136/1/4 139/1/4
f 129/2/4 135/2/4 139/2/4
f 136/2/4 137/2/4 140/2/4
f 139/1/4 136/1/4 140/1/4
f 140/2/4 137/2/4 141/2/4
f 141/2/4 137/2/4 142/2/4
f 97/2/4 126/2/4 143/2/4
f 126/2/4 129/2/4 143/2/4
f 140/2/4 141/2/4 143/2/4
f 139/2/4 140/2/4 143/2/4
f 129/2/4 139/2/4 143/2/4
f 143/2/4 141/2/4 144/2/4
f 144/2/4 141/2/4 145/2/4
f 145/2/4 141/2/4 146/2/4
f 144/2/4 145/2/4 147/2/4
f 147/2/4 145/2/4 148/2/4
f 151/2/5 150/2/5 149/2/5
f 152/2/5 150/2/5 151/2/5
f 157/2/5 154/2/5 153/2/5
f 158/2/5 154/2/5 157/2/5
f 159/2/5 156/2/5 155/2/5
f 160/2/5 156/2/5 159/2/5
f 161/2/6 162/2/6 165/2/6
f 165/2/6 162/2/6 166/2/6
f 163/2/6 164/2/6 167/2/6
f 167/2/6 164/2/6 168/2/6
f 169/2/6 170/2/6 173/2/6
f 173/2/6 170/2/6 174/2/6
f 171/2/6 172/2/6 175/2/6
f 175/2/6 172/2/6 176/2/6
f 177/2/6 178/2/6 181/2/6
f 181/2/6 178/2/6 182/2/6
f 179/2/6 180/2/6 183/2/6
f 183/2/6 180/2/6 184/2/6
f 185/2/6 186/2/6 187/2/6
f 187/2/6 186/2/6 188/2/6
